<?xml version="1.0" encoding="UTF-8"?>
<svg xmlns="http://www.w3.org/2000/svg" xmlns:xlink="http://www.w3.org/1999/xlink" width="75pt" height="74.999997pt" viewBox="0 0 75 74.999997" version="1.2">
<defs>
<clipPath id="clip1">
  <path d="M 0 7.5 L 74 7.5 L 74 68.25 L 0 68.25 Z M 0 7.5 "/>
</clipPath>
</defs>
<g id="surface1">
<g clip-path="url(#clip1)" clip-rule="nonzero">
<path style=" stroke:none;fill-rule:evenodd;fill:rgb(0%,0%,0%);fill-opacity:1;" d="M 7.050781 42.675781 C 7.449219 42.027344 7.28125 41.449219 6.648438 41.785156 C 5.070312 42.632812 3.851562 43.101562 2.480469 42.585938 C 1.0625 42.050781 1.238281 41.203125 1.914062 40.925781 C 7.335938 38.703125 9.988281 33.550781 12.816406 27.542969 C 14.59375 23.761719 17.199219 20.929688 20.257812 19.433594 C 20.980469 19.078125 21.699219 19.066406 21.640625 19.628906 C 21.585938 20.164062 21.3125 20.847656 21.640625 21.09375 C 22.050781 21.398438 22.679688 20.289062 22.941406 19.238281 C 23.121094 18.511719 22.683594 18.425781 22.421875 18.359375 C 22.167969 18.296875 21.902344 18.339844 21.640625 18.359375 C 21.25 18.386719 21.136719 17.742188 21.46875 17.1875 C 23.171875 14.339844 26.195312 12.75 29.6875 12.007812 C 32.238281 11.46875 29.5 13.179688 29.171875 13.570312 C 28.625 14.214844 28.679688 14.367188 29.429688 14.058594 C 32.726562 12.703125 35.226562 12.660156 37.738281 12.300781 C 38.683594 12.167969 38.566406 11.445312 38.082031 11.03125 C 37.867188 10.847656 37.433594 11.015625 36.785156 10.933594 C 35.003906 10.707031 36.105469 9.511719 37.851562 8.851562 C 38.175781 8.730469 41.675781 7.855469 41.542969 9.078125 C 41.5 9.476562 41.578125 9.824219 42.148438 9.957031 C 42.675781 10.078125 43.144531 9.902344 43.535156 9.566406 C 44.601562 8.644531 44.292969 7.652344 46.082031 7.574219 C 47.703125 7.507812 49.542969 8.683594 48.121094 10.347656 C 47.8125 10.710938 49.007812 10.820312 49.9375 10.542969 C 51.9375 9.949219 55.011719 10.359375 55.5625 13.179688 C 55.800781 14.40625 55.269531 14.769531 54.351562 14.9375 C 56.007812 15.480469 57.871094 15.703125 59.109375 16.894531 C 59.613281 17.375 60.742188 19.394531 59.886719 20.117188 C 59.714844 20.261719 59.371094 20.234375 58.9375 20.117188 C 58.480469 19.996094 58.609375 20.335938 58.9375 20.605469 C 59.742188 21.265625 60.996094 21.445312 61.101562 22.753906 C 61.152344 23.386719 60.859375 23.589844 60.320312 23.535156 C 59.980469 23.503906 59.660156 23.214844 59.195312 23.046875 C 58.503906 22.796875 58.074219 23.277344 58.851562 23.925781 C 59.839844 24.753906 60.964844 25.257812 61.011719 26.269531 C 61.050781 27.015625 61.007812 27.59375 60.148438 27.738281 C 59.472656 27.851562 58.945312 27.222656 58.246094 27.054688 C 57.296875 26.820312 56.6875 27.386719 56.859375 28.519531 C 56.964844 29.207031 57.269531 29.914062 58.417969 30.082031 C 60.292969 30.351562 61.203125 29.058594 63.109375 29.90625 C 64.269531 30.421875 65.160156 31.296875 65.339844 32.914062 C 65.460938 34.003906 65.148438 34.59375 64.386719 34.378906 C 63.984375 34.265625 63.714844 33.820312 63.261719 33.011719 C 62.753906 32.097656 62.757812 33.746094 62.742188 33.792969 C 62.574219 34.394531 62.054688 34.753906 61.53125 34.378906 C 61.121094 34.085938 60.816406 33.519531 60.234375 33.597656 C 59.832031 33.652344 59.359375 33.972656 60.148438 34.769531 C 61.074219 35.707031 63.101562 36.863281 62.570312 38.578125 C 62.429688 39.03125 62.015625 39.324219 61.445312 38.972656 C 61.101562 38.757812 61.207031 38.128906 60.925781 37.796875 C 59.914062 36.601562 59.183594 39.605469 61.011719 40.046875 C 61.867188 40.25 62.839844 39.894531 63.351562 41.023438 C 63.773438 41.957031 63.671875 43.007812 62.832031 43.5625 C 61.226562 44.621094 59.15625 42.308594 58.589844 40.828125 C 58.1875 39.769531 57.953125 38.589844 57.207031 37.40625 C 57.328125 39.664062 56.152344 40.128906 55.214844 37.796875 C 54.957031 37.152344 54.191406 37.257812 54.609375 38.09375 C 54.949219 38.761719 55.664062 39.304688 55.476562 40.144531 C 55.273438 41.046875 54.621094 41.398438 53.832031 41.316406 C 53.285156 41.257812 52.773438 41.136719 52.535156 40.535156 C 52.273438 39.886719 52.699219 39.578125 53.054688 39.070312 C 53.382812 38.589844 53.082031 38.386719 52.535156 38.484375 C 50.496094 38.835938 49.929688 36.460938 51.753906 35.84375 C 52.152344 35.710938 52.691406 35.808594 52.792969 35.355469 C 52.960938 34.609375 52.871094 33.886719 52.1875 34.378906 C 51.980469 34.527344 51.898438 34.960938 51.582031 35.0625 C 51.015625 35.242188 50.625 34.910156 50.457031 34.476562 C 50.257812 33.960938 50.460938 33.285156 49.332031 33.109375 C 48.476562 32.976562 48.089844 33.332031 48.292969 34.085938 C 48.429688 34.589844 48.871094 34.902344 49.160156 35.550781 C 49.585938 36.507812 49.347656 38.234375 48.035156 37.699219 C 47.261719 37.386719 47.257812 37.347656 47.339844 38.285156 C 47.484375 39.898438 46.351562 40.886719 44.917969 40.144531 C 44.523438 39.9375 44.210938 39.363281 44.3125 38.679688 C 44.390625 38.164062 44.21875 37.796875 43.359375 37.40625 C 42.804688 37.15625 42.175781 36.984375 41.804688 36.136719 C 41.484375 35.40625 41.5625 34.746094 42.148438 34.378906 C 42.523438 34.144531 43.089844 34.101562 43.535156 34.671875 C 43.925781 35.179688 44.144531 35.921875 44.917969 35.648438 C 45.457031 35.460938 45.683594 34.808594 45.4375 34.28125 C 45.285156 33.953125 44.710938 34.144531 44.140625 34.183594 C 43.449219 34.234375 43.101562 33.796875 43.1875 33.304688 C 43.335938 32.457031 43.65625 31.625 43.015625 31.253906 C 42.675781 31.054688 42.136719 31.101562 41.890625 31.839844 C 41.628906 32.621094 41.78125 33.640625 41.113281 34.183594 C 39.257812 35.6875 37.082031 34.605469 38.167969 31.839844 C 35.421875 33.339844 34.375 36.351562 35.574219 41.121094 C 36.535156 44.945312 40.234375 47.496094 46.476562 48.835938 C 41.5625 48.402344 37.050781 47.140625 34.449219 41.902344 C 34.417969 44.117188 35.527344 46.117188 36.957031 48.054688 C 34.253906 45.421875 32.597656 41.804688 32.804688 36.429688 C 25.683594 48.394531 40.304688 57.28125 48.867188 49.851562 C 50.34375 48.570312 52.742188 48.265625 53.660156 48.835938 C 56.777344 46.828125 58.777344 47.679688 59.421875 49.539062 C 60.066406 51.394531 59.011719 53.253906 57.378906 51.769531 C 57.019531 52.976562 57.472656 53.789062 59.714844 53.722656 C 61.28125 51.503906 66.632812 48.703125 69.648438 52.0625 C 70.015625 52.472656 69.871094 53.003906 69.476562 53.039062 C 68.898438 53.089844 68.507812 52.992188 67.9375 53.234375 C 67.582031 53.382812 67.628906 53.496094 68.007812 53.507812 C 70.773438 53.585938 73.238281 56.386719 73.207031 58.246094 C 73.171875 60.410156 68.878906 60.550781 69.875 58.269531 C 70 57.976562 70.328125 57.839844 70.476562 57.558594 C 70.578125 57.363281 70.382812 57.035156 70.015625 57.007812 C 69.347656 56.957031 68.976562 57.34375 69.097656 58.074219 C 69.222656 58.835938 69.222656 59.617188 69.355469 60.375 C 69.621094 61.878906 67.429688 63.34375 66.601562 62.058594 C 66.011719 61.144531 67.089844 60.144531 67.433594 60.019531 C 68.300781 59.703125 67.710938 59.082031 67.292969 58.976562 C 65.980469 58.644531 65.570312 60.265625 65.511719 61.445312 C 65.453125 62.714844 64.703125 63.664062 63.53125 64.066406 C 62.886719 64.289062 62.507812 64.136719 62.183594 63.96875 C 61.683594 63.714844 61.636719 63.277344 61.753906 62.964844 C 61.929688 62.492188 62.414062 62.339844 62.683594 62.121094 C 63.183594 61.726562 62.890625 61.378906 62.300781 61.734375 C 60.738281 62.683594 54.691406 67.542969 53.492188 64.941406 C 49.378906 67.066406 44.746094 67.0625 40.066406 66.875 C 48.605469 66.625 54.050781 63.972656 58.625 60.652344 C 57.796875 61.757812 56.824219 62.910156 54.859375 64.398438 C 54.523438 64.652344 54.679688 64.988281 55.25 64.84375 C 58.378906 64.058594 60.351562 62.09375 62.675781 60.96875 C 64.4375 60.121094 63.628906 62.152344 62.722656 62.703125 C 62.441406 62.871094 62.042969 63.574219 63.132812 63.410156 C 63.652344 63.328125 64.15625 63.09375 64.511719 62.753906 C 65.6875 61.625 64.324219 59.621094 66.082031 58.429688 C 66.820312 57.929688 67.792969 58.074219 68.222656 58.957031 C 68.976562 60.507812 66.4375 61.027344 67.402344 61.542969 C 68.117188 61.925781 68.757812 61.347656 68.863281 60.78125 C 68.945312 60.34375 68.890625 59.863281 68.75 59.445312 C 68.464844 58.59375 68.308594 57.777344 68.636719 57.03125 C 69.046875 56.113281 70.941406 56.191406 71.226562 57.160156 C 71.332031 57.523438 71.183594 57.898438 70.945312 58.175781 C 70.820312 58.320312 70.597656 58.328125 70.496094 58.492188 C 70.277344 58.84375 70.359375 59.515625 71.394531 59.253906 C 74.921875 58.375 70.292969 53.964844 68.132812 54.046875 C 67.648438 54.066406 66.441406 53.8125 67.121094 53.03125 C 67.5 52.59375 68.03125 52.65625 68.636719 52.585938 C 68.789062 52.570312 68.472656 52.132812 68.132812 51.953125 C 65.519531 50.585938 62.652344 51.8125 60.875 53.984375 C 54.457031 61.832031 45.761719 67.027344 36.070312 65.160156 C 34.949219 64.945312 34.796875 65.34375 35.734375 65.921875 C 36.960938 66.683594 38.28125 66.921875 39.5 67.382812 C 40.644531 67.816406 40.5 68.453125 39.222656 68.335938 C 33.273438 67.785156 29.265625 65.101562 24.484375 61.222656 C 25.421875 62.769531 26.691406 64.210938 28.816406 65.859375 C 29.785156 66.613281 29.496094 67.085938 28.308594 66.496094 C 21.882812 63.300781 17.6875 58.113281 14.527344 48.96875 C 11.617188 54.542969 6.152344 57.050781 0.0742188 58.8125 C 8.886719 55.523438 13.535156 50.570312 14.023438 43.953125 C 11.503906 46.226562 11.015625 39.152344 13.066406 39.632812 C 12.417969 38.589844 12.265625 32.90625 14.304688 35.570312 C 14.65625 36.03125 13.929688 34.53125 14.585938 33.664062 C 14.914062 33.230469 15.523438 33.039062 15.820312 33.726562 C 16.386719 35.03125 16.882812 38.207031 15.117188 37.574219 C 14.722656 37.433594 14.597656 37.945312 14.867188 38.300781 C 15.066406 38.566406 15.457031 38.347656 15.765625 38.238281 C 16.136719 38.105469 16.246094 38.785156 16.101562 39.507812 C 15.964844 40.195312 15.648438 40.863281 15.878906 41.476562 C 16.195312 42.324219 16.691406 42.019531 16.835938 41.539062 C 17.300781 39.964844 16.957031 38.089844 16.890625 36.332031 C 16.761719 32.996094 17.46875 30.269531 18.691406 27.886719 C 18.246094 28.046875 17.917969 28.425781 17.621094 28.964844 C 17.082031 29.941406 16.5625 29.746094 16.441406 28.394531 C 16.207031 25.816406 16.957031 23.667969 18.410156 21.980469 C 16.34375 23.285156 14.605469 25.453125 13.289062 28.140625 C 10.855469 33.105469 7.914062 39.53125 2.773438 41.285156 C 2.234375 41.46875 2.300781 41.707031 2.941406 41.792969 C 4.078125 41.941406 5.257812 41.46875 6.539062 41.15625 C 7.335938 40.964844 8.304688 41.414062 7.664062 42.679688 C 6.351562 45.285156 3.796875 46.695312 1.480469 48.269531 C 3.535156 46.554688 5.675781 44.902344 7.050781 42.675781 Z M 53.621094 14.769531 C 52.261719 14.472656 51.660156 13.886719 51.523438 13.136719 C 51.40625 12.472656 52.105469 12.242188 52.320312 12.734375 C 52.730469 13.667969 53.082031 14.3125 53.621094 14.769531 Z M 53.621094 14.769531 "/>
</g>
<path style=" stroke:none;fill-rule:evenodd;fill:rgb(100%,100%,100%);fill-opacity:1;" d="M 17.683594 27.59375 C 17.308594 28.425781 17.144531 28.324219 17.191406 27.277344 C 17.289062 25.066406 18.207031 22.824219 20.148438 20.800781 C 20.574219 20.355469 20.917969 20.382812 20.765625 20.976562 C 20.65625 21.390625 20.554688 21.816406 20.609375 22.230469 C 20.734375 23.164062 21.273438 23.15625 21.6875 22.820312 C 22.503906 22.15625 24.476562 19.210938 23.535156 18.085938 C 23.378906 17.894531 23.085938 17.957031 22.859375 17.910156 C 22.324219 17.804688 22.011719 17.75 22.613281 17.039062 C 24.554688 14.753906 26.21875 13.953125 28.003906 13.246094 C 28.449219 13.066406 28.402344 13.167969 28.128906 13.664062 C 27.585938 14.632812 27.964844 15.355469 28.804688 15.054688 C 32.550781 13.710938 34.546875 13.238281 37.410156 13.214844 C 38.734375 13.203125 39.792969 11.988281 39.371094 11.121094 C 39.179688 10.722656 38.632812 10.375 38.015625 10.179688 C 37.496094 10.011719 37.503906 9.96875 38.078125 9.761719 C 38.980469 9.4375 39.828125 9.222656 40.359375 9.691406 C 40.800781 10.082031 40.964844 10.609375 41.28125 10.804688 C 42.503906 11.578125 43.785156 10.648438 44.484375 9.519531 C 44.960938 8.753906 45.667969 8.183594 46.582031 8.195312 C 47.542969 8.207031 47.820312 8.609375 47.90625 8.960938 C 48.039062 9.511719 47.691406 9.875 47.257812 9.726562 C 46.929688 9.613281 46.695312 9.253906 46.367188 9.136719 C 46.054688 9.023438 45.710938 9.128906 45.535156 9.378906 C 43.816406 11.765625 42.46875 12.039062 39.710938 12.792969 C 42.277344 12.40625 43.914062 12.46875 45.59375 10.320312 C 46.027344 9.765625 46.472656 10.238281 46.796875 10.738281 C 47.234375 11.410156 47.847656 11.574219 48.464844 11.484375 C 50.164062 11.234375 52.214844 10.730469 53.777344 11.765625 C 54.722656 12.390625 55.519531 13.304688 55.023438 14.015625 C 54.628906 14.585938 53.886719 14.257812 53.5625 13.726562 C 53.234375 13.179688 53.121094 12.410156 52.652344 12.015625 C 50.847656 10.480469 49.734375 14.113281 52.730469 15.339844 C 53.585938 15.6875 54.488281 15.84375 55.304688 15.980469 C 57.375 16.335938 58.753906 17.109375 59.507812 18.457031 C 59.941406 19.238281 59.628906 19.566406 59.246094 19.546875 C 58.960938 19.53125 58.671875 19.472656 58.386719 19.519531 C 57.921875 19.589844 57.820312 20.132812 58.074219 20.488281 C 58.710938 21.375 59.785156 21.570312 60.472656 22.3125 C 60.777344 22.644531 60.445312 23.152344 60.082031 23.019531 C 59.574219 22.839844 58.925781 22.289062 58.363281 22.4375 C 57.644531 22.625 57.617188 23.316406 57.9375 23.960938 C 58.476562 25.035156 59.277344 25.253906 59.925781 25.875 C 60.636719 26.558594 60.316406 27.125 59.351562 26.785156 C 58.679688 26.554688 57.953125 26.097656 57.109375 26.199219 C 55.921875 26.34375 55.796875 28.554688 56.222656 29.464844 C 56.550781 30.167969 57.140625 30.523438 57.8125 30.671875 C 58.757812 30.882812 59.570312 30.789062 60.367188 30.59375 C 62.269531 30.121094 63.984375 30.730469 64.667969 32.820312 C 64.9375 33.636719 64.472656 33.9375 64.070312 33.261719 C 63.402344 32.144531 61.960938 31.300781 62.113281 33.320312 C 62.148438 33.738281 61.890625 33.960938 61.644531 33.703125 C 61.183594 33.210938 60.648438 32.703125 59.871094 32.878906 C 58.679688 33.148438 58.855469 34.75 59.664062 35.46875 C 60.53125 36.242188 61.566406 36.746094 61.855469 37.441406 C 62.160156 38.179688 61.839844 38.386719 61.4375 37.765625 C 61.128906 37.285156 60.816406 36.597656 59.976562 36.941406 C 58.332031 37.609375 59.292969 40.710938 61.054688 40.832031 C 61.644531 40.875 62.367188 41.070312 62.667969 41.445312 C 63.171875 42.0625 62.890625 42.953125 61.707031 42.828125 C 61.089844 42.765625 60.347656 42.316406 60.132812 42.089844 C 59.035156 40.933594 58.730469 39.816406 58.394531 38.710938 C 58.023438 37.484375 57.503906 36.414062 56.746094 35.617188 C 56.257812 35.105469 55.933594 35.289062 56.171875 35.851562 C 56.546875 36.742188 56.894531 37.242188 56.71875 38.148438 C 56.597656 38.773438 56.164062 38.6875 55.988281 38.351562 C 55.691406 37.777344 55.417969 37.203125 54.816406 36.851562 C 54.308594 36.554688 53.957031 36.746094 53.957031 37.382812 C 53.953125 38.132812 54.402344 38.777344 54.765625 39.53125 C 55.0625 40.148438 54.773438 40.679688 54.269531 40.707031 C 52.660156 40.789062 53.058594 40.457031 53.695312 38.941406 C 53.949219 38.335938 53.644531 37.800781 53.304688 37.824219 C 52.617188 37.863281 52.023438 37.992188 51.582031 37.734375 C 51.175781 37.492188 51.070312 36.9375 51.496094 36.660156 C 52.042969 36.304688 52.804688 36.40625 53.277344 35.9375 C 54.269531 34.957031 53.1875 32.585938 51.675781 34.183594 C 51.214844 34.664062 50.992188 34.296875 50.90625 33.851562 C 50.800781 33.296875 50.507812 32.550781 49.863281 32.203125 C 48.714844 31.585938 47.265625 32.691406 47.570312 34.144531 C 47.730469 34.917969 48.300781 35.355469 48.613281 35.96875 C 48.972656 36.683594 48.71875 37.117188 48.167969 36.882812 C 46.535156 36.183594 46.949219 37.441406 46.707031 38.910156 C 46.539062 39.9375 45.800781 39.84375 45.40625 39.648438 C 45.011719 39.449219 44.945312 39.160156 44.9375 38.910156 C 44.925781 38.539062 45.007812 38.164062 44.960938 37.792969 C 44.914062 37.394531 44.621094 37.140625 44.234375 37.027344 C 43.351562 36.769531 42.667969 36.632812 42.304688 36.058594 C 41.867188 35.367188 42.351562 34.671875 42.929688 34.996094 C 43.535156 35.335938 43.839844 36.179688 44.390625 36.351562 C 46.234375 36.933594 47 33.316406 44.859375 33.4375 C 44.625 33.449219 44.410156 33.632812 44.179688 33.613281 C 43.4375 33.554688 44.15625 32.070312 43.914062 31.488281 C 43.484375 30.4375 42.132812 29.875 41.34375 31.488281 C 41.050781 32.085938 41.066406 32.667969 40.941406 33.203125 C 40.769531 33.914062 39.878906 34.089844 39.316406 33.980469 C 38.785156 33.878906 38.203125 33.414062 38.601562 32.644531 C 38.992188 31.894531 39.375 31.832031 39.910156 31.566406 C 40.371094 31.335938 40.40625 30.507812 39.964844 30.300781 C 38.757812 29.730469 37.65625 30.402344 36.542969 31.171875 C 29.292969 36.1875 27.746094 45.101562 30.222656 53.691406 C 29.277344 52.660156 28.789062 51.488281 28.210938 50.363281 C 27.707031 49.382812 27.511719 48.710938 26.894531 47.816406 C 25.945312 46.441406 25.058594 46.386719 25.484375 48.574219 C 26.414062 53.3125 28.683594 56.871094 32.234375 60.125 C 29.703125 56.847656 27.605469 53.597656 26.796875 50.328125 C 26.550781 49.328125 26.757812 49.222656 27.265625 50.175781 C 31.992188 59.011719 37.640625 63.789062 46.109375 63.152344 C 39.179688 62.566406 34.035156 59.382812 31.496094 52.40625 C 31.917969 54.453125 32.78125 56.449219 34.175781 58.386719 C 29.660156 53.445312 28.691406 46.972656 30.558594 40.371094 C 29.964844 46.792969 32.5625 50.789062 38.734375 54.527344 C 34.644531 53.664062 31.835938 50.691406 30.085938 45.972656 C 31.800781 53.972656 38.078125 57.058594 45.105469 55.359375 C 42.878906 54.996094 40.675781 54.601562 39.136719 53.238281 C 43.273438 53.730469 46.027344 52.976562 49.394531 50.4375 C 50.878906 49.289062 52.28125 48.882812 53.484375 49.53125 C 53.816406 49.707031 55.222656 51.273438 53.941406 51.332031 C 53.394531 51.355469 53.0625 51.019531 52.6875 50.753906 C 52.695312 51.253906 52.753906 51.761719 53.15625 52.347656 C 53.617188 52.816406 54.097656 53.226562 54.097656 53.757812 C 54.089844 55.015625 52.429688 55.007812 52.21875 54.289062 C 52.035156 53.675781 52.308594 53.078125 51.828125 52.476562 C 51.527344 52.101562 49.886719 52.167969 49.980469 53.375 C 50.015625 53.84375 50.035156 54.109375 49.996094 54.578125 C 49.910156 55.601562 48.789062 55.183594 48.816406 54.511719 C 48.835938 53.890625 48.90625 53.183594 48.460938 52.566406 C 47.429688 51.136719 45.925781 53.535156 45.957031 54.730469 C 46.488281 53.476562 47.796875 52.339844 48.03125 53.757812 C 48.242188 55.046875 47.933594 56.078125 49.484375 56.128906 C 50.386719 56.160156 50.878906 55.3125 50.730469 53.804688 C 50.6875 53.367188 51.285156 53.125 51.386719 53.527344 C 51.519531 54.039062 51.445312 54.839844 51.828125 55.128906 C 52.855469 55.910156 54.292969 55.746094 54.644531 54.15625 C 54.761719 53.621094 54.515625 52.980469 53.980469 52.257812 C 55.472656 51.632812 55.195312 50.066406 54.058594 49.078125 C 55.429688 48.414062 58.296875 47.617188 58.808594 49.882812 C 59.1875 51.550781 58.398438 51.636719 57.851562 51.242188 C 57.449219 50.949219 57.570312 50.417969 57.578125 50.003906 C 57.109375 50.339844 56.601562 50.863281 56.523438 51.683594 C 56.289062 54.050781 57.921875 54.652344 59.378906 54.246094 C 54.035156 60.351562 47.5 60.546875 39.460938 57.425781 C 43.417969 59.851562 48.59375 60.652344 53.742188 59.988281 C 47.164062 64.535156 41.75 65.804688 34.492188 64.359375 C 33.761719 64.214844 33.601562 64.667969 34.179688 65.289062 C 35.152344 66.332031 36.589844 67.003906 38.757812 67.542969 C 39.394531 67.699219 39.339844 67.988281 38.679688 67.894531 C 31.917969 66.941406 28.21875 63.332031 24.085938 60.03125 C 23.285156 59.394531 22.992188 59.898438 23.539062 60.828125 C 24.574219 62.585938 25.992188 64.234375 27.804688 65.773438 C 18.835938 61.238281 15.246094 50.269531 14.265625 39.933594 C 13.949219 40.898438 14.023438 42.007812 13.820312 43.070312 C 13.734375 43.515625 13.101562 43.539062 12.816406 43.203125 C 12.121094 42.378906 12.535156 39.949219 12.816406 40.597656 C 12.890625 40.765625 12.992188 40.9375 13.128906 41.039062 C 13.539062 41.335938 13.761719 41.078125 13.71875 40.417969 C 13.546875 38.785156 12.996094 37.929688 13.308594 36.113281 C 13.414062 35.503906 13.507812 35.429688 13.816406 35.890625 C 13.949219 36.089844 14.085938 36.382812 14.265625 36.53125 C 14.578125 36.792969 14.847656 36.523438 14.855469 36.085938 C 14.863281 35.527344 14.703125 35.027344 14.851562 34.453125 C 15.027344 33.769531 15.265625 33.824219 15.515625 34.457031 C 15.800781 35.164062 15.90625 35.871094 15.871094 36.578125 C 15.847656 37.03125 15.621094 37.160156 15.085938 36.972656 C 14.21875 36.671875 13.96875 38.101562 14.265625 38.742188 C 14.441406 39.117188 14.710938 39.234375 14.890625 39.121094 C 15.621094 38.667969 15.566406 39.050781 15.4375 39.449219 C 15.183594 40.25 15.027344 41.140625 15.222656 41.960938 C 15.621094 43.632812 17.769531 43.007812 17.707031 41.402344 C 17.460938 34.8125 17.113281 31.628906 20.132812 26.59375 C 20.910156 25.296875 20.441406 24.457031 18.84375 25.753906 C 18.347656 26.15625 18.015625 26.859375 17.683594 27.59375 Z M 17.683594 27.59375 "/>
<path style=" stroke:none;fill-rule:evenodd;fill:rgb(0%,0%,0%);fill-opacity:1;" d="M 2.433594 56.261719 C 7.363281 53.257812 11.394531 50.101562 12.730469 46.394531 C 13.179688 45.144531 12.332031 44.785156 11.691406 46.101562 C 9.570312 50.457031 6.363281 53.71875 2.433594 56.261719 Z M 2.433594 56.261719 "/>
<path style=" stroke:none;fill-rule:evenodd;fill:rgb(0%,0%,0%);fill-opacity:1;" d="M 22.917969 28.289062 C 21.828125 30.042969 20.964844 33.316406 20.910156 36.46875 C 20.890625 37.519531 21.042969 37.53125 21.394531 36.535156 C 22.164062 34.363281 22.957031 32.351562 23.867188 31.328125 C 25.054688 30 24.773438 32.023438 24.6875 32.871094 C 24.511719 34.59375 24.765625 34.09375 25.113281 32.941406 C 26.09375 29.660156 27.746094 27.226562 29.515625 25.542969 C 27.789062 27.851562 26.515625 30.472656 25.539062 33.621094 C 25.035156 35.257812 24.238281 35.613281 24.089844 34.703125 C 23.953125 33.863281 24.523438 31.734375 23.625 32.910156 C 22.613281 34.234375 22.46875 35.816406 21.722656 37.84375 C 21.171875 39.347656 20.132812 39.007812 20.210938 37.367188 C 20.542969 30.683594 22.34375 29.332031 22.917969 28.289062 Z M 22.917969 28.289062 "/>
<path style=" stroke:none;fill-rule:evenodd;fill:rgb(0%,0%,0%);fill-opacity:1;" d="M 49.496094 14.261719 C 51.027344 16.007812 52.101562 16.511719 53.9375 16.953125 C 54.28125 17.035156 54.398438 17.488281 54.15625 17.75 C 53.996094 17.917969 53.738281 18.023438 53.421875 18.175781 C 53.152344 18.308594 53 18.558594 53.585938 18.667969 C 55 18.925781 56.378906 19.203125 56.972656 20.53125 C 57.171875 20.976562 57.105469 21.429688 56.511719 21.449219 C 56.039062 21.46875 55.550781 21.300781 55.023438 21.207031 C 54.710938 21.148438 54.507812 21.421875 54.832031 21.847656 C 55.234375 22.375 55.777344 22.777344 55.890625 23.195312 C 56.042969 23.765625 55.816406 24.113281 54.804688 23.867188 C 54.058594 23.6875 53.339844 23.160156 52.582031 22.613281 C 51.601562 21.902344 50.46875 21.664062 49.304688 21.542969 C 50.375 21.492188 51.515625 21.582031 52.636719 22.183594 C 53.328125 22.554688 53.929688 23.144531 54.589844 23.378906 C 55.121094 23.566406 55.535156 23.382812 55.214844 23.011719 C 54.789062 22.511719 54.445312 22.019531 54.234375 21.605469 C 53.558594 20.246094 55.414062 20.941406 56.078125 20.960938 C 56.355469 20.96875 56.378906 20.617188 56.242188 20.347656 C 55.507812 18.929688 53.929688 19.410156 52.855469 18.910156 C 52.410156 18.707031 52.511719 18.226562 52.800781 18.023438 C 53.058594 17.84375 53.347656 17.753906 53.558594 17.65625 C 53.886719 17.507812 53.863281 17.382812 53.449219 17.289062 C 51.660156 16.886719 50.574219 15.890625 49.496094 14.261719 Z M 49.496094 14.261719 "/>
<path style=" stroke:none;fill-rule:evenodd;fill:rgb(0%,0%,0%);fill-opacity:1;" d="M 50.308594 25.152344 C 51.933594 26.253906 53.621094 27.25 54.261719 28.671875 C 54.890625 30.054688 53.75 30.105469 53.070312 29.742188 C 51.535156 28.917969 53.4375 31.851562 53.800781 32.21875 C 54.636719 33.054688 54.28125 31.925781 54.203125 31.335938 C 54.125 30.726562 54.46875 30.613281 54.84375 31.027344 C 55.503906 31.742188 55.765625 32.722656 56.15625 33.257812 C 56.46875 33.6875 56.675781 33.417969 56.671875 33.167969 C 56.667969 32.90625 56.558594 32.660156 56.535156 32.402344 C 56.425781 30.972656 58.0625 31.566406 59.164062 32.585938 C 58.246094 32.3125 56.699219 31.296875 57.070312 32.675781 C 57.164062 33.027344 57.226562 33.421875 57.078125 33.777344 C 56.894531 34.226562 56.492188 34.347656 56.128906 33.902344 C 55.972656 33.707031 54.40625 30.296875 54.75 32.035156 C 54.8125 32.351562 54.820312 32.683594 54.695312 33.015625 C 54.609375 33.25 54.519531 33.355469 54.019531 33.136719 C 53.355469 32.84375 50.511719 28.792969 52.554688 29.097656 C 52.90625 29.152344 53.160156 29.292969 53.511719 29.347656 C 53.941406 29.414062 54.0625 29.265625 53.855469 28.835938 C 53.15625 27.394531 51.769531 26.308594 50.308594 25.152344 Z M 50.308594 25.152344 "/>
<path style=" stroke:none;fill-rule:evenodd;fill:rgb(0%,0%,0%);fill-opacity:1;" d="M 19.945312 30.90625 C 20.898438 28.367188 21.914062 25.945312 23.300781 24.269531 C 23.652344 23.84375 23.785156 23.832031 23.753906 24.269531 C 23.730469 24.550781 23.691406 24.835938 23.714844 25.121094 C 23.757812 25.664062 24.285156 25.890625 24.695312 25.25 C 25.652344 23.75 26.277344 22.601562 27.425781 21.363281 C 28.261719 20.464844 28.386719 20.371094 28.3125 21.375 C 28.15625 23.585938 30.710938 21.492188 30.953125 20.652344 C 31.066406 20.257812 31.199219 19.902344 31.027344 19.632812 C 30.898438 19.425781 30.609375 19.414062 30.386719 19.292969 C 30.191406 19.183594 30.207031 18.945312 30.425781 18.695312 C 30.746094 18.324219 32.339844 16.632812 32.15625 18.058594 C 32.058594 18.84375 32.253906 19.003906 33.0625 18.867188 C 33.617188 18.769531 34.144531 18.34375 34.605469 17.886719 C 35.6875 16.820312 34.488281 19.296875 35.625 18.738281 C 36.023438 18.542969 36.332031 18.246094 36.527344 17.929688 C 36.875 17.378906 37.167969 16.785156 37.507812 16.226562 C 38.855469 14.019531 40.546875 13.835938 40.863281 15.164062 C 39.96875 15.566406 37.410156 18 38.980469 18.226562 C 39.488281 18.300781 40.367188 17.976562 40.894531 17.882812 C 41.609375 17.761719 41.535156 18.089844 40.738281 18.308594 C 36.40625 19.5 33.589844 21.214844 32.15625 23.460938 C 31.867188 23.917969 31.269531 24.738281 32.683594 24.058594 C 34.660156 23.105469 36.730469 22.328125 38.941406 22.058594 C 40.054688 21.917969 39.007812 22.8125 38.714844 22.992188 C 38.128906 23.355469 37.75 23.957031 38.753906 23.761719 C 42.855469 22.960938 46.011719 23.25 48.964844 24.269531 C 46.183594 23.265625 43.464844 22.234375 39.882812 23.207031 C 38.589844 23.554688 39.6875 22.625 40.035156 22.226562 C 40.40625 21.800781 40.175781 21.414062 39.515625 21.476562 C 37.542969 21.667969 35.640625 22.054688 33.324219 23.207031 C 32.40625 23.664062 32.378906 23.609375 33.175781 22.824219 C 35.371094 20.664062 38.355469 19.667969 41.503906 18.527344 C 42.460938 18.179688 42.359375 17.296875 41.394531 17.292969 C 40.8125 17.292969 40.210938 17.710938 39.621094 17.589844 C 38.46875 17.351562 41.046875 15.980469 41.734375 15.738281 C 43.957031 14.949219 43.925781 12.53125 48.25 12.738281 C 43.492188 11.660156 43.421875 14.792969 41.390625 15.121094 C 41.304688 12.667969 38.308594 13.644531 37.507812 14.996094 C 37.042969 15.78125 36.710938 16.675781 36.191406 17.417969 C 35.695312 18.121094 35.390625 18.015625 35.472656 17.335938 C 35.507812 17.066406 35.535156 16.796875 35.550781 16.527344 C 35.570312 16.117188 35.285156 16.132812 35.058594 16.355469 C 34.554688 16.863281 34.019531 17.441406 33.324219 17.84375 C 32.726562 18.191406 32.777344 17.878906 32.796875 17.71875 C 32.835938 17.394531 32.898438 17.046875 32.722656 16.695312 C 32.617188 16.484375 32.351562 16.476562 32.042969 16.609375 C 31.113281 17.015625 30.285156 17.609375 29.519531 18.652344 C 29 19.359375 29.601562 19.703125 30.347656 19.886719 C 30.589844 19.945312 30.539062 20.199219 30.386719 20.441406 C 29.523438 21.8125 28.9375 22.007812 28.804688 20.226562 C 28.765625 19.726562 28.339844 19.828125 27.972656 20.140625 C 26.757812 21.199219 25.738281 22.53125 24.769531 24.226562 C 23.992188 25.589844 24.3125 24.082031 24.207031 23.417969 C 24.148438 23.050781 23.746094 22.925781 23.453125 23.25 C 21.492188 25.398438 20.5625 28.109375 19.945312 30.90625 Z M 19.945312 30.90625 "/>
<path style=" stroke:none;fill-rule:evenodd;fill:rgb(0%,0%,0%);fill-opacity:1;" d="M 42.785156 25.511719 C 38.03125 25.25 33.691406 26.0625 29.988281 31.128906 C 29.160156 32.265625 29.335938 32.273438 29.863281 32.027344 C 32.222656 30.921875 31.753906 32.859375 30.75 33.730469 C 28.324219 35.828125 27.046875 39.964844 26.722656 42.867188 C 26.636719 43.644531 25.910156 43.285156 25.625 42.566406 C 25.210938 41.511719 24.914062 39.488281 24.765625 39.925781 C 23.519531 43.554688 24.121094 48.964844 24.949219 54.464844 C 23.800781 50.402344 22.398438 44.914062 24.300781 38.441406 C 24.730469 36.96875 25.5 37.570312 25.464844 38.78125 C 25.445312 39.53125 25.488281 39.917969 25.652344 40.585938 C 25.8125 41.230469 26.085938 41.296875 26.257812 40.359375 C 26.804688 37.351562 27.914062 34.742188 30.164062 33.042969 C 30.585938 32.726562 30.710938 32.34375 30.273438 32.460938 C 29.734375 32.605469 29.148438 32.863281 28.675781 33.191406 C 27.785156 33.808594 27.464844 32.703125 27.945312 32.023438 C 33.304688 24.480469 38.304688 25.101562 42.785156 25.511719 Z M 42.785156 25.511719 "/>
<path style=" stroke:none;fill-rule:evenodd;fill:rgb(0%,0%,0%);fill-opacity:1;" d="M 7.316406 39.164062 C 6.652344 39.722656 5.511719 41.300781 7.988281 39.917969 C 11.253906 38.09375 13.542969 31.871094 15.929688 25.660156 C 13.476562 30.710938 11.167969 35.933594 7.316406 39.164062 Z M 7.316406 39.164062 "/>
<path style=" stroke:none;fill-rule:evenodd;fill:rgb(0%,0%,0%);fill-opacity:1;" d="M 5.976562 60.003906 C 10.828125 59.046875 13.582031 56.617188 15.160156 53.363281 C 16.421875 57.132812 18.566406 60.699219 22.648438 63.828125 C 19.636719 61.761719 17.085938 59.332031 15.203125 56.375 C 12.359375 58.832031 9.269531 59.96875 5.976562 60.003906 Z M 5.976562 60.003906 "/>
<path style=" stroke:none;fill-rule:evenodd;fill:rgb(0%,0%,0%);fill-opacity:1;" d="M 19.519531 31.773438 C 19.050781 37.492188 18.605469 43.230469 20.109375 49.066406 C 20.519531 50.644531 20.300781 50.753906 19.214844 49.578125 C 18.78125 49.105469 18.371094 48.746094 18.125 48.324219 C 17.722656 47.628906 17.675781 47.636719 17.84375 48.40625 C 18.679688 52.234375 20.09375 56.007812 22.015625 59.71875 C 19.09375 55.679688 17.238281 51.277344 16.707031 46.582031 C 16.507812 44.816406 17.046875 45.339844 17.550781 46.246094 C 17.960938 46.984375 18.339844 47.796875 18.828125 48.429688 C 19.160156 48.863281 19.3125 48.867188 19.210938 48.386719 C 17.789062 41.675781 18.589844 36.6875 19.519531 31.773438 Z M 19.519531 31.773438 "/>
<path style=" stroke:none;fill-rule:evenodd;fill:rgb(0%,0%,0%);fill-opacity:1;" d="M 56.148438 60.992188 C 57.746094 60.375 60.53125 58.242188 62.535156 55.59375 C 63.117188 54.816406 63.28125 54.871094 62.941406 55.78125 C 62.75 56.289062 62.496094 56.707031 62.292969 57.132812 C 61.84375 58.082031 62.296875 58.503906 63.25 57.777344 C 64.023438 57.191406 64.558594 56.363281 65.472656 55.699219 C 66.304688 55.097656 66.671875 55.460938 66.144531 56.484375 C 65.851562 57.046875 66.519531 57.324219 67.078125 56.644531 C 68.050781 55.457031 69.257812 55.128906 70.351562 55.347656 C 69.660156 55.109375 68.324219 54.738281 67.25 55.730469 C 66.71875 56.226562 66.734375 56.234375 66.929688 55.535156 C 67.089844 54.960938 66.550781 54.445312 65.90625 54.675781 C 64.976562 55.003906 64.328125 55.773438 63.539062 56.78125 C 63.207031 57.199219 63.027344 57.078125 63.226562 56.699219 C 63.515625 56.148438 63.816406 55.640625 63.921875 55.078125 C 64.121094 54.011719 63.15625 53.835938 62.511719 54.59375 C 60.585938 56.847656 59.222656 59.09375 56.148438 60.992188 Z M 56.148438 60.992188 "/>
<path style=" stroke:none;fill-rule:evenodd;fill:rgb(0%,0%,0%);fill-opacity:1;" d="M 22.636719 22.011719 C 23.835938 21.265625 24.960938 20.441406 25.703125 19.179688 C 25.996094 18.683594 25.730469 18.332031 25.449219 17.886719 C 24.828125 16.894531 26.445312 15.597656 27.0625 14.730469 C 26.113281 15.429688 24.871094 16.09375 24.554688 16.894531 C 24.152344 17.914062 24.941406 18.128906 24.929688 18.773438 C 24.910156 20.167969 23.402344 21.199219 22.636719 22.011719 Z M 22.636719 22.011719 "/>
</g>
</svg>
